<mxfile host="app.diagrams.net" agent="Mozilla/5.0 (Windows NT 10.0; Win64; x64) AppleWebKit/537.36 (KHTML, like Gecko) Chrome/140.0.0.0 Safari/537.36" version="28.2.5">
  <diagram name="หน้า-1" id="96m4E3OnTg2AaLFPkMjn">
    <mxGraphModel dx="1491" dy="691" grid="1" gridSize="10" guides="1" tooltips="1" connect="1" arrows="1" fold="1" page="1" pageScale="1" pageWidth="827" pageHeight="1169" math="0" shadow="0">
      <root>
        <mxCell id="0" />
        <mxCell id="1" parent="0" />
        <mxCell id="BGG5swiJTUGkInYAqvUc-1" value="" style="edgeStyle=orthogonalEdgeStyle;rounded=0;orthogonalLoop=1;jettySize=auto;html=1;" parent="1" source="BGG5swiJTUGkInYAqvUc-2" target="BGG5swiJTUGkInYAqvUc-4" edge="1">
          <mxGeometry relative="1" as="geometry" />
        </mxCell>
        <mxCell id="BGG5swiJTUGkInYAqvUc-2" value="Start (main)" style="ellipse;whiteSpace=wrap;html=1;" parent="1" vertex="1">
          <mxGeometry x="530" y="350" width="140" height="50" as="geometry" />
        </mxCell>
        <mxCell id="BGG5swiJTUGkInYAqvUc-3" value="" style="edgeStyle=orthogonalEdgeStyle;rounded=0;orthogonalLoop=1;jettySize=auto;html=1;" parent="1" source="BGG5swiJTUGkInYAqvUc-4" target="BGG5swiJTUGkInYAqvUc-6" edge="1">
          <mxGeometry relative="1" as="geometry" />
        </mxCell>
        <mxCell id="BGG5swiJTUGkInYAqvUc-4" value="กำหนดอาร์เรย์ a = {15,7,25,3,73,32,45}&#xa;n = 7, i, j" style="whiteSpace=wrap;html=1;" parent="1" vertex="1">
          <mxGeometry x="480" y="460" width="240" height="60" as="geometry" />
        </mxCell>
        <mxCell id="BGG5swiJTUGkInYAqvUc-5" value="" style="edgeStyle=orthogonalEdgeStyle;rounded=0;orthogonalLoop=1;jettySize=auto;html=1;" parent="1" source="BGG5swiJTUGkInYAqvUc-6" target="BGG5swiJTUGkInYAqvUc-8" edge="1">
          <mxGeometry relative="1" as="geometry" />
        </mxCell>
        <mxCell id="BGG5swiJTUGkInYAqvUc-6" value="แสดง: Old Series :" style="shape=parallelogram;perimeter=parallelogramPerimeter;whiteSpace=wrap;html=1;" parent="1" vertex="1">
          <mxGeometry x="490" y="570" width="220" height="60" as="geometry" />
        </mxCell>
        <mxCell id="BGG5swiJTUGkInYAqvUc-39" value="" style="edgeStyle=orthogonalEdgeStyle;rounded=0;orthogonalLoop=1;jettySize=auto;html=1;" parent="1" source="BGG5swiJTUGkInYAqvUc-45" target="BGG5swiJTUGkInYAqvUc-9" edge="1">
          <mxGeometry relative="1" as="geometry" />
        </mxCell>
        <mxCell id="BGG5swiJTUGkInYAqvUc-8" value="i = 0" style="whiteSpace=wrap;html=1;" parent="1" vertex="1">
          <mxGeometry x="540" y="700" width="120" height="50" as="geometry" />
        </mxCell>
        <mxCell id="BGG5swiJTUGkInYAqvUc-40" value="" style="edgeStyle=orthogonalEdgeStyle;rounded=0;orthogonalLoop=1;jettySize=auto;html=1;" parent="1" source="BGG5swiJTUGkInYAqvUc-9" target="BGG5swiJTUGkInYAqvUc-11" edge="1">
          <mxGeometry relative="1" as="geometry" />
        </mxCell>
        <mxCell id="BGG5swiJTUGkInYAqvUc-48" value="จริง" style="edgeLabel;html=1;align=center;verticalAlign=middle;resizable=0;points=[];" parent="BGG5swiJTUGkInYAqvUc-40" vertex="1" connectable="0">
          <mxGeometry x="-0.2775" y="1" relative="1" as="geometry">
            <mxPoint as="offset" />
          </mxGeometry>
        </mxCell>
        <mxCell id="BGG5swiJTUGkInYAqvUc-47" style="edgeStyle=orthogonalEdgeStyle;rounded=0;orthogonalLoop=1;jettySize=auto;html=1;entryX=0.5;entryY=0;entryDx=0;entryDy=0;exitX=1;exitY=0.5;exitDx=0;exitDy=0;" parent="1" source="BGG5swiJTUGkInYAqvUc-9" target="BGG5swiJTUGkInYAqvUc-24" edge="1">
          <mxGeometry relative="1" as="geometry">
            <mxPoint x="770" y="1400" as="targetPoint" />
            <Array as="points">
              <mxPoint x="750" y="860" />
              <mxPoint x="750" y="1400" />
              <mxPoint x="600" y="1400" />
            </Array>
          </mxGeometry>
        </mxCell>
        <mxCell id="BGG5swiJTUGkInYAqvUc-49" value="เท็จ" style="edgeLabel;html=1;align=center;verticalAlign=middle;resizable=0;points=[];" parent="BGG5swiJTUGkInYAqvUc-47" vertex="1" connectable="0">
          <mxGeometry x="-0.84" relative="1" as="geometry">
            <mxPoint as="offset" />
          </mxGeometry>
        </mxCell>
        <mxCell id="BGG5swiJTUGkInYAqvUc-9" value="i &lt; n ?" style="rhombus;whiteSpace=wrap;html=1;" parent="1" vertex="1">
          <mxGeometry x="525" y="820" width="150" height="80" as="geometry" />
        </mxCell>
        <mxCell id="BGG5swiJTUGkInYAqvUc-71" value="" style="edgeStyle=orthogonalEdgeStyle;rounded=0;orthogonalLoop=1;jettySize=auto;html=1;" parent="1" source="BGG5swiJTUGkInYAqvUc-10" target="BGG5swiJTUGkInYAqvUc-34" edge="1">
          <mxGeometry relative="1" as="geometry" />
        </mxCell>
        <mxCell id="BGG5swiJTUGkInYAqvUc-94" value="จริง" style="edgeLabel;html=1;align=center;verticalAlign=middle;resizable=0;points=[];" parent="BGG5swiJTUGkInYAqvUc-71" vertex="1" connectable="0">
          <mxGeometry x="0.0889" relative="1" as="geometry">
            <mxPoint as="offset" />
          </mxGeometry>
        </mxCell>
        <mxCell id="BGG5swiJTUGkInYAqvUc-103" style="edgeStyle=orthogonalEdgeStyle;rounded=0;orthogonalLoop=1;jettySize=auto;html=1;entryX=0.5;entryY=0;entryDx=0;entryDy=0;" parent="1" source="BGG5swiJTUGkInYAqvUc-10" target="BGG5swiJTUGkInYAqvUc-37" edge="1">
          <mxGeometry relative="1" as="geometry">
            <Array as="points">
              <mxPoint x="780" y="3800" />
              <mxPoint x="780" y="4280" />
              <mxPoint x="600" y="4280" />
            </Array>
          </mxGeometry>
        </mxCell>
        <mxCell id="BGG5swiJTUGkInYAqvUc-104" value="เท็จ" style="edgeLabel;html=1;align=center;verticalAlign=middle;resizable=0;points=[];" parent="BGG5swiJTUGkInYAqvUc-103" vertex="1" connectable="0">
          <mxGeometry x="-0.831" y="3" relative="1" as="geometry">
            <mxPoint as="offset" />
          </mxGeometry>
        </mxCell>
        <mxCell id="BGG5swiJTUGkInYAqvUc-10" value="i &amp;gt; n ?" style="rhombus;whiteSpace=wrap;html=1;" parent="1" vertex="1">
          <mxGeometry x="525" y="3760" width="150" height="80" as="geometry" />
        </mxCell>
        <mxCell id="BGG5swiJTUGkInYAqvUc-41" value="" style="edgeStyle=orthogonalEdgeStyle;rounded=0;orthogonalLoop=1;jettySize=auto;html=1;" parent="1" source="BGG5swiJTUGkInYAqvUc-11" target="BGG5swiJTUGkInYAqvUc-12" edge="1">
          <mxGeometry relative="1" as="geometry" />
        </mxCell>
        <mxCell id="BGG5swiJTUGkInYAqvUc-11" value="แสดง: , (คอมมา + ช่องว่าง)" style="shape=parallelogram;perimeter=parallelogramPerimeter;whiteSpace=wrap;html=1;" parent="1" vertex="1">
          <mxGeometry x="495" y="970" width="210" height="60" as="geometry" />
        </mxCell>
        <mxCell id="BGG5swiJTUGkInYAqvUc-42" value="" style="edgeStyle=orthogonalEdgeStyle;rounded=0;orthogonalLoop=1;jettySize=auto;html=1;" parent="1" source="BGG5swiJTUGkInYAqvUc-12" target="BGG5swiJTUGkInYAqvUc-13" edge="1">
          <mxGeometry relative="1" as="geometry" />
        </mxCell>
        <mxCell id="BGG5swiJTUGkInYAqvUc-12" value="แสดง: a[i]" style="shape=parallelogram;perimeter=parallelogramPerimeter;whiteSpace=wrap;html=1;" parent="1" vertex="1">
          <mxGeometry x="520" y="1120" width="160" height="60" as="geometry" />
        </mxCell>
        <mxCell id="BGG5swiJTUGkInYAqvUc-43" style="edgeStyle=orthogonalEdgeStyle;rounded=0;orthogonalLoop=1;jettySize=auto;html=1;entryX=0;entryY=0.5;entryDx=0;entryDy=0;" parent="1" source="BGG5swiJTUGkInYAqvUc-13" target="BGG5swiJTUGkInYAqvUc-45" edge="1">
          <mxGeometry relative="1" as="geometry">
            <mxPoint x="340" y="850.0000000000002" as="targetPoint" />
            <Array as="points">
              <mxPoint x="420" y="1285" />
              <mxPoint x="420" y="780" />
            </Array>
          </mxGeometry>
        </mxCell>
        <mxCell id="BGG5swiJTUGkInYAqvUc-13" value="i = i + 1" style="whiteSpace=wrap;html=1;" parent="1" vertex="1">
          <mxGeometry x="530" y="1260" width="140" height="50" as="geometry" />
        </mxCell>
        <mxCell id="BGG5swiJTUGkInYAqvUc-59" value="" style="edgeStyle=orthogonalEdgeStyle;rounded=0;orthogonalLoop=1;jettySize=auto;html=1;" parent="1" source="BGG5swiJTUGkInYAqvUc-15" target="BGG5swiJTUGkInYAqvUc-25" edge="1">
          <mxGeometry relative="1" as="geometry" />
        </mxCell>
        <mxCell id="BGG5swiJTUGkInYAqvUc-15" value="i = 0 (วนรอบนอก)" style="whiteSpace=wrap;html=1;" parent="1" vertex="1">
          <mxGeometry x="515" y="2960" width="170" height="50" as="geometry" />
        </mxCell>
        <mxCell id="BGG5swiJTUGkInYAqvUc-51" value="" style="edgeStyle=orthogonalEdgeStyle;rounded=0;orthogonalLoop=1;jettySize=auto;html=1;" parent="1" source="BGG5swiJTUGkInYAqvUc-86" target="BGG5swiJTUGkInYAqvUc-17" edge="1">
          <mxGeometry relative="1" as="geometry" />
        </mxCell>
        <mxCell id="BGG5swiJTUGkInYAqvUc-74" style="edgeStyle=orthogonalEdgeStyle;rounded=0;orthogonalLoop=1;jettySize=auto;html=1;entryX=0.5;entryY=0;entryDx=0;entryDy=0;" parent="1" source="BGG5swiJTUGkInYAqvUc-16" target="BGG5swiJTUGkInYAqvUc-23" edge="1">
          <mxGeometry relative="1" as="geometry">
            <mxPoint x="614.9999999999864" y="2755" as="targetPoint" />
            <Array as="points">
              <mxPoint x="740" y="1640" />
              <mxPoint x="740" y="2755" />
              <mxPoint x="600" y="2755" />
            </Array>
          </mxGeometry>
        </mxCell>
        <mxCell id="BGG5swiJTUGkInYAqvUc-78" value="เท็จ" style="edgeLabel;html=1;align=center;verticalAlign=middle;resizable=0;points=[];" parent="BGG5swiJTUGkInYAqvUc-74" vertex="1" connectable="0">
          <mxGeometry x="-0.8288" y="2" relative="1" as="geometry">
            <mxPoint as="offset" />
          </mxGeometry>
        </mxCell>
        <mxCell id="BGG5swiJTUGkInYAqvUc-16" value="i &lt; n - 1 ?" style="rhombus;whiteSpace=wrap;html=1;" parent="1" vertex="1">
          <mxGeometry x="515" y="1600" width="170" height="80" as="geometry" />
        </mxCell>
        <mxCell id="BGG5swiJTUGkInYAqvUc-52" value="" style="edgeStyle=orthogonalEdgeStyle;rounded=0;orthogonalLoop=1;jettySize=auto;html=1;" parent="1" source="BGG5swiJTUGkInYAqvUc-82" target="BGG5swiJTUGkInYAqvUc-18" edge="1">
          <mxGeometry relative="1" as="geometry" />
        </mxCell>
        <mxCell id="BGG5swiJTUGkInYAqvUc-17" value="j = 0 (วนรอบใน)" style="whiteSpace=wrap;html=1;" parent="1" vertex="1">
          <mxGeometry x="515" y="1790" width="170" height="50" as="geometry" />
        </mxCell>
        <mxCell id="BGG5swiJTUGkInYAqvUc-53" value="" style="edgeStyle=orthogonalEdgeStyle;rounded=0;orthogonalLoop=1;jettySize=auto;html=1;" parent="1" source="BGG5swiJTUGkInYAqvUc-18" target="BGG5swiJTUGkInYAqvUc-19" edge="1">
          <mxGeometry relative="1" as="geometry" />
        </mxCell>
        <mxCell id="BGG5swiJTUGkInYAqvUc-79" value="จริง" style="edgeLabel;html=1;align=center;verticalAlign=middle;resizable=0;points=[];" parent="BGG5swiJTUGkInYAqvUc-53" vertex="1" connectable="0">
          <mxGeometry x="-0.0281" y="2" relative="1" as="geometry">
            <mxPoint as="offset" />
          </mxGeometry>
        </mxCell>
        <mxCell id="BGG5swiJTUGkInYAqvUc-80" style="edgeStyle=orthogonalEdgeStyle;rounded=0;orthogonalLoop=1;jettySize=auto;html=1;entryX=0.5;entryY=0;entryDx=0;entryDy=0;exitX=1;exitY=0.5;exitDx=0;exitDy=0;" parent="1" source="BGG5swiJTUGkInYAqvUc-18" target="BGG5swiJTUGkInYAqvUc-22" edge="1">
          <mxGeometry relative="1" as="geometry">
            <mxPoint x="615" y="2615" as="targetPoint" />
            <Array as="points">
              <mxPoint x="715" y="1970" />
              <mxPoint x="715" y="2615" />
              <mxPoint x="600" y="2615" />
            </Array>
          </mxGeometry>
        </mxCell>
        <mxCell id="BGG5swiJTUGkInYAqvUc-18" value="j &lt; n - 1 - i ?" style="rhombus;whiteSpace=wrap;html=1;" parent="1" vertex="1">
          <mxGeometry x="505" y="1930" width="190" height="80" as="geometry" />
        </mxCell>
        <mxCell id="BGG5swiJTUGkInYAqvUc-54" value="" style="edgeStyle=orthogonalEdgeStyle;rounded=0;orthogonalLoop=1;jettySize=auto;html=1;" parent="1" source="BGG5swiJTUGkInYAqvUc-19" target="BGG5swiJTUGkInYAqvUc-20" edge="1">
          <mxGeometry relative="1" as="geometry" />
        </mxCell>
        <mxCell id="BGG5swiJTUGkInYAqvUc-19" value="a[j] &gt; a[j+1] ?" style="rhombus;whiteSpace=wrap;html=1;" parent="1" vertex="1">
          <mxGeometry x="510" y="2120" width="180" height="80" as="geometry" />
        </mxCell>
        <mxCell id="BGG5swiJTUGkInYAqvUc-55" value="" style="edgeStyle=orthogonalEdgeStyle;rounded=0;orthogonalLoop=1;jettySize=auto;html=1;" parent="1" source="BGG5swiJTUGkInYAqvUc-20" target="BGG5swiJTUGkInYAqvUc-21" edge="1">
          <mxGeometry relative="1" as="geometry" />
        </mxCell>
        <mxCell id="BGG5swiJTUGkInYAqvUc-20" value="สลับค่า:&#xa;t = a[j]&#xa;a[j] = a[j+1]&#xa;a[j+1] = t" style="whiteSpace=wrap;html=1;" parent="1" vertex="1">
          <mxGeometry x="510" y="2310" width="180" height="90" as="geometry" />
        </mxCell>
        <mxCell id="BGG5swiJTUGkInYAqvUc-21" value="j = j + 1" style="whiteSpace=wrap;html=1;" parent="1" vertex="1">
          <mxGeometry x="525" y="2500" width="150" height="50" as="geometry" />
        </mxCell>
        <mxCell id="BGG5swiJTUGkInYAqvUc-81" style="edgeStyle=orthogonalEdgeStyle;rounded=0;orthogonalLoop=1;jettySize=auto;html=1;entryX=0;entryY=0.5;entryDx=0;entryDy=0;" parent="1" source="BGG5swiJTUGkInYAqvUc-22" target="BGG5swiJTUGkInYAqvUc-82" edge="1">
          <mxGeometry relative="1" as="geometry">
            <mxPoint x="400" y="1850" as="targetPoint" />
            <Array as="points">
              <mxPoint x="400" y="2675" />
              <mxPoint x="400" y="1875" />
            </Array>
          </mxGeometry>
        </mxCell>
        <mxCell id="BGG5swiJTUGkInYAqvUc-22" value="i = i + 1" style="whiteSpace=wrap;html=1;" parent="1" vertex="1">
          <mxGeometry x="525" y="2670" width="150" height="50" as="geometry" />
        </mxCell>
        <mxCell id="BGG5swiJTUGkInYAqvUc-58" value="" style="edgeStyle=orthogonalEdgeStyle;rounded=0;orthogonalLoop=1;jettySize=auto;html=1;" parent="1" source="BGG5swiJTUGkInYAqvUc-23" target="BGG5swiJTUGkInYAqvUc-15" edge="1">
          <mxGeometry relative="1" as="geometry" />
        </mxCell>
        <mxCell id="BGG5swiJTUGkInYAqvUc-23" value="แสดง: New Series :" style="shape=parallelogram;perimeter=parallelogramPerimeter;whiteSpace=wrap;html=1;" parent="1" vertex="1">
          <mxGeometry x="490" y="2810" width="220" height="60" as="geometry" />
        </mxCell>
        <mxCell id="BGG5swiJTUGkInYAqvUc-50" value="" style="edgeStyle=orthogonalEdgeStyle;rounded=0;orthogonalLoop=1;jettySize=auto;html=1;" parent="1" source="BGG5swiJTUGkInYAqvUc-24" target="BGG5swiJTUGkInYAqvUc-16" edge="1">
          <mxGeometry relative="1" as="geometry" />
        </mxCell>
        <mxCell id="BGG5swiJTUGkInYAqvUc-24" value="i = 0" style="whiteSpace=wrap;html=1;" parent="1" vertex="1">
          <mxGeometry x="540" y="1450" width="120" height="50" as="geometry" />
        </mxCell>
        <mxCell id="BGG5swiJTUGkInYAqvUc-69" value="" style="edgeStyle=orthogonalEdgeStyle;rounded=0;orthogonalLoop=1;jettySize=auto;html=1;" parent="1" source="BGG5swiJTUGkInYAqvUc-25" target="BGG5swiJTUGkInYAqvUc-27" edge="1">
          <mxGeometry relative="1" as="geometry" />
        </mxCell>
        <mxCell id="BGG5swiJTUGkInYAqvUc-89" value="จริง" style="edgeLabel;html=1;align=center;verticalAlign=middle;resizable=0;points=[];" parent="BGG5swiJTUGkInYAqvUc-69" vertex="1" connectable="0">
          <mxGeometry x="-0.1298" y="1" relative="1" as="geometry">
            <mxPoint as="offset" />
          </mxGeometry>
        </mxCell>
        <mxCell id="BGG5swiJTUGkInYAqvUc-90" style="edgeStyle=orthogonalEdgeStyle;rounded=0;orthogonalLoop=1;jettySize=auto;html=1;entryX=1;entryY=0.5;entryDx=0;entryDy=0;" parent="1" source="BGG5swiJTUGkInYAqvUc-25" target="BGG5swiJTUGkInYAqvUc-91" edge="1">
          <mxGeometry relative="1" as="geometry">
            <mxPoint x="760" y="3590" as="targetPoint" />
            <Array as="points">
              <mxPoint x="750" y="3160" />
              <mxPoint x="750" y="3565" />
            </Array>
          </mxGeometry>
        </mxCell>
        <mxCell id="BGG5swiJTUGkInYAqvUc-93" value="เท็จ" style="edgeLabel;html=1;align=center;verticalAlign=middle;resizable=0;points=[];" parent="BGG5swiJTUGkInYAqvUc-90" vertex="1" connectable="0">
          <mxGeometry x="-0.83" y="1" relative="1" as="geometry">
            <mxPoint as="offset" />
          </mxGeometry>
        </mxCell>
        <mxCell id="BGG5swiJTUGkInYAqvUc-25" value="i &lt; n ?" style="rhombus;whiteSpace=wrap;html=1;" parent="1" vertex="1">
          <mxGeometry x="525" y="3120" width="150" height="80" as="geometry" />
        </mxCell>
        <mxCell id="BGG5swiJTUGkInYAqvUc-70" value="" style="edgeStyle=orthogonalEdgeStyle;rounded=0;orthogonalLoop=1;jettySize=auto;html=1;" parent="1" source="BGG5swiJTUGkInYAqvUc-27" target="BGG5swiJTUGkInYAqvUc-28" edge="1">
          <mxGeometry relative="1" as="geometry" />
        </mxCell>
        <mxCell id="BGG5swiJTUGkInYAqvUc-27" value="แสดง: , (คอมมา + ช่องว่าง)" style="shape=parallelogram;perimeter=parallelogramPerimeter;whiteSpace=wrap;html=1;" parent="1" vertex="1">
          <mxGeometry x="495" y="3310" width="210" height="60" as="geometry" />
        </mxCell>
        <mxCell id="BGG5swiJTUGkInYAqvUc-67" value="" style="edgeStyle=orthogonalEdgeStyle;rounded=0;orthogonalLoop=1;jettySize=auto;html=1;" parent="1" source="BGG5swiJTUGkInYAqvUc-91" target="BGG5swiJTUGkInYAqvUc-31" edge="1">
          <mxGeometry relative="1" as="geometry" />
        </mxCell>
        <mxCell id="BGG5swiJTUGkInYAqvUc-28" value="แสดง: a[i]" style="shape=parallelogram;perimeter=parallelogramPerimeter;whiteSpace=wrap;html=1;" parent="1" vertex="1">
          <mxGeometry x="520" y="3447" width="160" height="60" as="geometry" />
        </mxCell>
        <mxCell id="BGG5swiJTUGkInYAqvUc-97" style="edgeStyle=orthogonalEdgeStyle;rounded=0;orthogonalLoop=1;jettySize=auto;html=1;entryX=0;entryY=0.5;entryDx=0;entryDy=0;" parent="1" source="BGG5swiJTUGkInYAqvUc-29" target="BGG5swiJTUGkInYAqvUc-98" edge="1">
          <mxGeometry relative="1" as="geometry">
            <mxPoint x="450" y="3690" as="targetPoint" />
            <Array as="points">
              <mxPoint x="480" y="4215" />
              <mxPoint x="480" y="3705" />
            </Array>
          </mxGeometry>
        </mxCell>
        <mxCell id="BGG5swiJTUGkInYAqvUc-29" value="i = i + 1" style="whiteSpace=wrap;html=1;" parent="1" vertex="1">
          <mxGeometry x="530" y="4190" width="140" height="50" as="geometry" />
        </mxCell>
        <mxCell id="BGG5swiJTUGkInYAqvUc-61" value="" style="edgeStyle=orthogonalEdgeStyle;rounded=0;orthogonalLoop=1;jettySize=auto;html=1;" parent="1" source="BGG5swiJTUGkInYAqvUc-98" target="BGG5swiJTUGkInYAqvUc-10" edge="1">
          <mxGeometry relative="1" as="geometry" />
        </mxCell>
        <mxCell id="BGG5swiJTUGkInYAqvUc-31" value="pos = -1,i = 0" style="whiteSpace=wrap;html=1;" parent="1" vertex="1">
          <mxGeometry x="540" y="3610" width="120" height="50" as="geometry" />
        </mxCell>
        <mxCell id="BGG5swiJTUGkInYAqvUc-72" value="" style="edgeStyle=orthogonalEdgeStyle;rounded=0;orthogonalLoop=1;jettySize=auto;html=1;" parent="1" source="BGG5swiJTUGkInYAqvUc-34" target="BGG5swiJTUGkInYAqvUc-35" edge="1">
          <mxGeometry relative="1" as="geometry" />
        </mxCell>
        <mxCell id="BGG5swiJTUGkInYAqvUc-101" value="จริง" style="edgeLabel;html=1;align=center;verticalAlign=middle;resizable=0;points=[];" parent="BGG5swiJTUGkInYAqvUc-72" vertex="1" connectable="0">
          <mxGeometry x="-0.0296" y="1" relative="1" as="geometry">
            <mxPoint as="offset" />
          </mxGeometry>
        </mxCell>
        <mxCell id="BGG5swiJTUGkInYAqvUc-100" style="edgeStyle=orthogonalEdgeStyle;rounded=0;orthogonalLoop=1;jettySize=auto;html=1;entryX=0.5;entryY=0;entryDx=0;entryDy=0;" parent="1" source="BGG5swiJTUGkInYAqvUc-34" target="BGG5swiJTUGkInYAqvUc-29" edge="1">
          <mxGeometry relative="1" as="geometry">
            <Array as="points">
              <mxPoint x="720" y="3950" />
              <mxPoint x="720" y="4170" />
              <mxPoint x="600" y="4170" />
            </Array>
          </mxGeometry>
        </mxCell>
        <mxCell id="BGG5swiJTUGkInYAqvUc-102" value="เท็จ" style="edgeLabel;html=1;align=center;verticalAlign=middle;resizable=0;points=[];" parent="BGG5swiJTUGkInYAqvUc-100" vertex="1" connectable="0">
          <mxGeometry x="-0.4853" y="2" relative="1" as="geometry">
            <mxPoint as="offset" />
          </mxGeometry>
        </mxCell>
        <mxCell id="BGG5swiJTUGkInYAqvUc-34" value="a[i] == 32 ?" style="rhombus;whiteSpace=wrap;html=1;" parent="1" vertex="1">
          <mxGeometry x="515" y="3910" width="170" height="80" as="geometry" />
        </mxCell>
        <mxCell id="BGG5swiJTUGkInYAqvUc-35" value="pos = i (พบแล้ว)" style="whiteSpace=wrap;html=1;" parent="1" vertex="1">
          <mxGeometry x="525" y="4070" width="150" height="50" as="geometry" />
        </mxCell>
        <mxCell id="BGG5swiJTUGkInYAqvUc-68" value="" style="edgeStyle=orthogonalEdgeStyle;rounded=0;orthogonalLoop=1;jettySize=auto;html=1;" parent="1" source="BGG5swiJTUGkInYAqvUc-37" target="BGG5swiJTUGkInYAqvUc-38" edge="1">
          <mxGeometry relative="1" as="geometry" />
        </mxCell>
        <mxCell id="BGG5swiJTUGkInYAqvUc-37" value="แสดง: Pos of 32 : pos" style="shape=parallelogram;perimeter=parallelogramPerimeter;whiteSpace=wrap;html=1;" parent="1" vertex="1">
          <mxGeometry x="485" y="4320" width="230" height="60" as="geometry" />
        </mxCell>
        <mxCell id="BGG5swiJTUGkInYAqvUc-38" value="Stop" style="ellipse;whiteSpace=wrap;html=1;" parent="1" vertex="1">
          <mxGeometry x="540" y="4480" width="120" height="50" as="geometry" />
        </mxCell>
        <mxCell id="BGG5swiJTUGkInYAqvUc-46" value="" style="edgeStyle=orthogonalEdgeStyle;rounded=0;orthogonalLoop=1;jettySize=auto;html=1;" parent="1" source="BGG5swiJTUGkInYAqvUc-8" target="BGG5swiJTUGkInYAqvUc-45" edge="1">
          <mxGeometry relative="1" as="geometry">
            <mxPoint x="600" y="750" as="sourcePoint" />
            <mxPoint x="600" y="820" as="targetPoint" />
          </mxGeometry>
        </mxCell>
        <mxCell id="BGG5swiJTUGkInYAqvUc-45" value="" style="ellipse;whiteSpace=wrap;html=1;aspect=fixed;" parent="1" vertex="1">
          <mxGeometry x="590" y="770" width="20" height="20" as="geometry" />
        </mxCell>
        <mxCell id="BGG5swiJTUGkInYAqvUc-83" value="" style="edgeStyle=orthogonalEdgeStyle;rounded=0;orthogonalLoop=1;jettySize=auto;html=1;" parent="1" source="BGG5swiJTUGkInYAqvUc-17" target="BGG5swiJTUGkInYAqvUc-82" edge="1">
          <mxGeometry relative="1" as="geometry">
            <mxPoint x="600" y="1820" as="sourcePoint" />
            <mxPoint x="600" y="1930" as="targetPoint" />
          </mxGeometry>
        </mxCell>
        <mxCell id="BGG5swiJTUGkInYAqvUc-82" value="" style="ellipse;whiteSpace=wrap;html=1;aspect=fixed;" parent="1" vertex="1">
          <mxGeometry x="585" y="1870" width="30" height="30" as="geometry" />
        </mxCell>
        <mxCell id="BGG5swiJTUGkInYAqvUc-85" value="" style="edgeStyle=orthogonalEdgeStyle;rounded=0;orthogonalLoop=1;jettySize=auto;html=1;entryX=0;entryY=0.5;entryDx=0;entryDy=0;" parent="1" source="BGG5swiJTUGkInYAqvUc-21" target="BGG5swiJTUGkInYAqvUc-86" edge="1">
          <mxGeometry relative="1" as="geometry">
            <mxPoint x="600" y="2550" as="sourcePoint" />
            <mxPoint x="350" y="1710" as="targetPoint" />
            <Array as="points">
              <mxPoint x="480" y="2525" />
              <mxPoint x="480" y="1739" />
            </Array>
          </mxGeometry>
        </mxCell>
        <mxCell id="BGG5swiJTUGkInYAqvUc-87" value="" style="edgeStyle=orthogonalEdgeStyle;rounded=0;orthogonalLoop=1;jettySize=auto;html=1;" parent="1" source="BGG5swiJTUGkInYAqvUc-16" target="BGG5swiJTUGkInYAqvUc-86" edge="1">
          <mxGeometry relative="1" as="geometry">
            <mxPoint x="600" y="1680" as="sourcePoint" />
            <mxPoint x="600" y="1770" as="targetPoint" />
          </mxGeometry>
        </mxCell>
        <mxCell id="BGG5swiJTUGkInYAqvUc-88" value="จริง" style="edgeLabel;html=1;align=center;verticalAlign=middle;resizable=0;points=[];" parent="BGG5swiJTUGkInYAqvUc-87" vertex="1" connectable="0">
          <mxGeometry x="-0.0682" relative="1" as="geometry">
            <mxPoint as="offset" />
          </mxGeometry>
        </mxCell>
        <mxCell id="BGG5swiJTUGkInYAqvUc-86" value="" style="ellipse;whiteSpace=wrap;html=1;aspect=fixed;" parent="1" vertex="1">
          <mxGeometry x="585" y="1724" width="30" height="30" as="geometry" />
        </mxCell>
        <mxCell id="BGG5swiJTUGkInYAqvUc-92" value="" style="edgeStyle=orthogonalEdgeStyle;rounded=0;orthogonalLoop=1;jettySize=auto;html=1;" parent="1" source="BGG5swiJTUGkInYAqvUc-28" target="BGG5swiJTUGkInYAqvUc-91" edge="1">
          <mxGeometry relative="1" as="geometry">
            <mxPoint x="600" y="3530" as="sourcePoint" />
            <mxPoint x="600" y="3620" as="targetPoint" />
          </mxGeometry>
        </mxCell>
        <mxCell id="BGG5swiJTUGkInYAqvUc-91" value="" style="ellipse;whiteSpace=wrap;html=1;aspect=fixed;" parent="1" vertex="1">
          <mxGeometry x="585" y="3550" width="30" height="30" as="geometry" />
        </mxCell>
        <mxCell id="BGG5swiJTUGkInYAqvUc-99" value="" style="edgeStyle=orthogonalEdgeStyle;rounded=0;orthogonalLoop=1;jettySize=auto;html=1;" parent="1" source="BGG5swiJTUGkInYAqvUc-31" target="BGG5swiJTUGkInYAqvUc-98" edge="1">
          <mxGeometry relative="1" as="geometry">
            <mxPoint x="600" y="3670" as="sourcePoint" />
            <mxPoint x="600" y="3760" as="targetPoint" />
          </mxGeometry>
        </mxCell>
        <mxCell id="BGG5swiJTUGkInYAqvUc-98" value="" style="ellipse;whiteSpace=wrap;html=1;aspect=fixed;" parent="1" vertex="1">
          <mxGeometry x="585" y="3690" width="30" height="30" as="geometry" />
        </mxCell>
      </root>
    </mxGraphModel>
  </diagram>
</mxfile>
